<svg xmlns="http://www.w3.org/2000/svg" xmlns:xlink="http://www.w3.org/1999/xlink" width="500" zoomAndPan="magnify" viewBox="0 0 375 374.999991" height="500" preserveAspectRatio="xMidYMid meet" version="1.0"><defs><g/><clipPath id="918638c268"><path d="M 86.8125 9.277344 L 193 9.277344 L 193 308 L 86.8125 308 Z M 86.8125 9.277344 " clip-rule="nonzero"/></clipPath><clipPath id="c22e1256cf"><path d="M 208 67 L 315 67 L 315 365.527344 L 208 365.527344 Z M 208 67 " clip-rule="nonzero"/></clipPath><clipPath id="966699e6a9"><path d="M 350 20 L 369.5625 20 L 369.5625 40 L 350 40 Z M 350 20 " clip-rule="nonzero"/></clipPath></defs><g clip-path="url(#918638c268)"><path fill="#393536" d="M 86.90625 176.945312 L 86.90625 139.722656 C 94.449219 139.308594 100.136719 138.171875 103.960938 136.308594 C 107.785156 134.445312 111.097656 131.324219 113.886719 126.925781 C 116.679688 122.53125 118.589844 117.027344 119.625 110.40625 C 120.449219 105.445312 120.867188 96.8125 120.867188 84.507812 C 120.867188 64.449219 121.796875 50.464844 123.65625 42.554688 C 125.519531 34.648438 128.875 28.285156 133.734375 23.480469 C 138.59375 18.671875 145.679688 14.871094 154.980469 12.082031 C 161.285156 10.21875 171.210938 9.289062 184.757812 9.289062 L 192.976562 9.289062 L 192.976562 46.359375 C 181.5 46.359375 174.132812 47.003906 170.878906 48.292969 C 167.621094 49.589844 165.21875 51.550781 163.667969 54.1875 C 162.117188 56.824219 161.34375 61.347656 161.34375 67.757812 C 161.34375 74.273438 160.875 86.628906 159.945312 104.824219 C 159.425781 115.058594 158.085938 123.359375 155.914062 129.714844 C 153.742188 136.074219 150.972656 141.324219 147.617188 145.457031 C 144.253906 149.59375 139.109375 153.886719 132.1875 158.332031 C 138.285156 161.847656 143.273438 165.957031 147.152344 170.660156 C 151.027344 175.367188 153.996094 181.078125 156.066406 187.800781 C 158.136719 194.519531 159.480469 203.515625 160.097656 214.785156 C 160.820312 231.949219 161.183594 242.90625 161.183594 247.664062 C 161.183594 254.488281 162.011719 259.242188 163.667969 261.933594 C 165.320312 264.621094 167.828125 266.664062 171.1875 268.058594 C 174.546875 269.453125 181.808594 270.152344 192.976562 270.152344 L 192.976562 307.371094 L 184.757812 307.371094 C 170.800781 307.371094 160.097656 306.257812 152.65625 304.039062 C 145.210938 301.816406 138.933594 298.117188 133.816406 292.949219 C 128.699219 287.777344 125.257812 281.394531 123.503906 273.796875 C 121.742188 266.195312 120.867188 254.226562 120.867188 237.894531 C 120.867188 218.871094 120.035156 206.511719 118.382812 200.824219 C 116.109375 192.554688 112.671875 186.636719 108.070312 183.066406 C 103.46875 179.5 96.414062 177.460938 86.90625 176.945312 " fill-opacity="1" fill-rule="nonzero"/></g><path fill="#eeb30d" d="M 322.171875 86.507812 L 297.898438 86.507812 L 297.898438 62.230469 L 322.171875 62.230469 L 322.171875 86.507812 " fill-opacity="1" fill-rule="nonzero"/><path fill="#eeb30d" d="M 316.441406 135.054688 L 297.898438 135.054688 L 297.898438 116.507812 L 316.441406 116.507812 L 316.441406 135.054688 " fill-opacity="1" fill-rule="nonzero"/><g clip-path="url(#c22e1256cf)"><path fill="#eeb30d" d="M 245.828125 105.054688 L 245.828125 86.507812 L 264.375 86.507812 L 264.375 105.054688 Z M 293 191.761719 C 288.347656 188.195312 284.882812 182.277344 282.609375 174.007812 C 281.359375 169.339844 280.617188 160.398438 280.371094 147.191406 L 264.375 147.191406 L 264.375 122.917969 L 280.019531 122.917969 C 279.632812 113.554688 278.8125 106.261719 277.570312 101.035156 C 275.761719 93.4375 272.320312 87.027344 267.257812 81.804688 C 262.191406 76.585938 255.9375 72.886719 248.492188 70.714844 C 241.046875 68.542969 230.351562 67.460938 216.394531 67.460938 L 208.175781 67.460938 L 208.175781 104.523438 C 219.855469 104.523438 227.378906 105.222656 230.738281 106.617188 C 234.097656 108.015625 236.421875 110.007812 237.71875 112.589844 C 239.007812 115.175781 239.707031 120.34375 239.808594 128.097656 C 240.328125 152.707031 241.152344 168.628906 242.289062 175.867188 C 244.046875 186.414062 247.355469 195.097656 252.214844 201.921875 C 255.730469 206.679688 261.3125 211.539062 268.964844 216.5 C 263.070312 219.910156 258.234375 223.867188 254.464844 228.367188 C 250.6875 232.863281 247.667969 238.34375 245.390625 244.804688 C 243.117188 251.265625 241.722656 259.875 241.203125 270.628906 C 240.378906 288.414062 239.9375 300.453125 239.890625 306.761719 C 239.832031 313.070312 239.007812 317.542969 237.40625 320.179688 C 235.800781 322.816406 233.296875 324.832031 229.882812 326.230469 C 226.472656 327.625 219.234375 328.320312 208.175781 328.320312 L 208.175781 365.542969 L 216.394531 365.542969 C 229.933594 365.542969 239.859375 364.613281 246.167969 362.75 C 255.574219 359.957031 262.707031 356.164062 267.570312 351.355469 C 272.425781 346.542969 275.761719 340.160156 277.570312 332.199219 C 279.378906 324.234375 280.285156 310.226562 280.285156 290.167969 C 280.285156 277.96875 280.695312 269.386719 281.523438 264.421875 C 282.664062 257.808594 284.601562 252.300781 287.339844 247.90625 C 290.078125 243.511719 293.363281 240.382812 297.1875 238.523438 C 301.011719 236.660156 306.699219 235.523438 314.246094 235.113281 L 314.246094 197.890625 C 304.730469 197.375 297.652344 195.328125 293 191.761719 " fill-opacity="1" fill-rule="nonzero"/></g><g clip-path="url(#966699e6a9)"><path fill="#eeb30d" d="M 369.496094 39.363281 L 350.949219 39.363281 L 350.949219 20.816406 L 369.496094 20.816406 L 369.496094 39.363281 " fill-opacity="1" fill-rule="nonzero"/></g><path fill="#eeb30d" d="M 276.507812 62.230469 L 241.890625 62.230469 L 241.890625 27.613281 L 276.507812 27.613281 L 276.507812 62.230469 " fill-opacity="1" fill-rule="nonzero"/><g fill="#eeb30d" fill-opacity="1"><g transform="translate(12.06291, 286.485079)"><g><path d="M 11.5625 -28.671875 L 1.078125 -28.671875 L 1.078125 -36.046875 L 29.90625 -36.046875 L 29.90625 -28.671875 L 19.421875 -28.671875 L 19.421875 0 L 11.5625 0 Z M 11.5625 -28.671875 "/></g></g></g><g fill="#eeb30d" fill-opacity="1"><g transform="translate(53.100549, 286.485079)"><g><path d="M 14.953125 0.75 C 12.984375 0.75 11.179688 0.425781 9.546875 -0.21875 C 7.910156 -0.863281 6.5 -1.757812 5.3125 -2.90625 C 4.132812 -4.050781 3.222656 -5.421875 2.578125 -7.015625 C 1.929688 -8.617188 1.609375 -10.367188 1.609375 -12.265625 C 1.609375 -14.160156 1.929688 -15.914062 2.578125 -17.53125 C 3.222656 -19.144531 4.117188 -20.546875 5.265625 -21.734375 C 6.421875 -22.921875 7.785156 -23.84375 9.359375 -24.5 C 10.941406 -25.164062 12.664062 -25.5 14.53125 -25.5 C 16.28125 -25.5 17.898438 -25.203125 19.390625 -24.609375 C 20.878906 -24.015625 22.179688 -23.179688 23.296875 -22.109375 C 24.410156 -21.035156 25.28125 -19.757812 25.90625 -18.28125 C 26.53125 -16.8125 26.84375 -15.203125 26.84375 -13.453125 C 26.84375 -12.804688 26.820312 -12.265625 26.78125 -11.828125 C 26.75 -11.398438 26.679688 -10.882812 26.578125 -10.28125 L 9.09375 -10.28125 C 9.445312 -8.769531 10.1875 -7.582031 11.3125 -6.71875 C 12.445312 -5.863281 13.894531 -5.4375 15.65625 -5.4375 C 16.90625 -5.4375 18.085938 -5.664062 19.203125 -6.125 C 20.316406 -6.59375 21.359375 -7.347656 22.328125 -8.390625 L 26.140625 -4.140625 C 24.742188 -2.523438 23.078125 -1.304688 21.140625 -0.484375 C 19.203125 0.335938 17.140625 0.75 14.953125 0.75 Z M 19.6875 -15.28125 C 19.363281 -16.78125 18.742188 -17.925781 17.828125 -18.71875 C 16.921875 -19.507812 15.785156 -19.90625 14.421875 -19.90625 C 13.015625 -19.90625 11.835938 -19.492188 10.890625 -18.671875 C 9.941406 -17.847656 9.304688 -16.71875 8.984375 -15.28125 Z M 19.6875 -15.28125 "/></g></g></g><g fill="#eeb30d" fill-opacity="1"><g transform="translate(91.610608, 286.485079)"><g><path d="M 2.953125 -38.203125 L 10.171875 -38.203125 L 10.171875 -13.453125 L 18.1875 -24.75 L 26.3125 -24.75 L 17.640625 -13.015625 L 26.953125 0 L 18.34375 0 L 10.171875 -11.828125 L 10.171875 0 L 2.953125 0 Z M 2.953125 -38.203125 "/></g></g></g><g fill="#eeb30d" fill-opacity="1"><g transform="translate(127.811673, 286.485079)"><g/></g></g><g fill="#eeb30d" fill-opacity="1"><g transform="translate(10.894458, 361.954514)"><g/></g></g><g fill="#eeb30d" fill-opacity="1"><g transform="translate(33.189881, 361.954514)"><g/></g></g><g fill="#eeb30d" fill-opacity="1"><g transform="translate(55.507486, 361.954514)"><g><path d="M 11.78125 -29.203125 L 1.09375 -29.203125 L 1.09375 -36.703125 L 30.453125 -36.703125 L 30.453125 -29.203125 L 19.78125 -29.203125 L 19.78125 0 L 11.78125 0 Z M 11.78125 -29.203125 "/></g></g></g><g fill="#eeb30d" fill-opacity="1"><g transform="translate(97.301454, 361.954514)"><g><path d="M 15.171875 0.765625 C 13.273438 0.765625 11.503906 0.421875 9.859375 -0.265625 C 8.210938 -0.960938 6.773438 -1.914062 5.546875 -3.125 C 4.328125 -4.332031 3.367188 -5.75 2.671875 -7.375 C 1.984375 -9 1.640625 -10.738281 1.640625 -12.59375 C 1.640625 -14.457031 1.984375 -16.203125 2.671875 -17.828125 C 3.367188 -19.453125 4.328125 -20.867188 5.546875 -22.078125 C 6.773438 -23.285156 8.210938 -24.234375 9.859375 -24.921875 C 11.503906 -25.617188 13.273438 -25.96875 15.171875 -25.96875 C 17.066406 -25.96875 18.835938 -25.617188 20.484375 -24.921875 C 22.128906 -24.234375 23.5625 -23.285156 24.78125 -22.078125 C 26.007812 -20.867188 26.96875 -19.453125 27.65625 -17.828125 C 28.351562 -16.203125 28.703125 -14.457031 28.703125 -12.59375 C 28.703125 -10.738281 28.351562 -9 27.65625 -7.375 C 26.96875 -5.75 26.007812 -4.332031 24.78125 -3.125 C 23.5625 -1.914062 22.128906 -0.960938 20.484375 -0.265625 C 18.835938 0.421875 17.066406 0.765625 15.171875 0.765625 Z M 15.171875 -6.1875 C 16.960938 -6.1875 18.414062 -6.78125 19.53125 -7.96875 C 20.644531 -9.15625 21.203125 -10.71875 21.203125 -12.65625 C 21.203125 -14.519531 20.644531 -16.046875 19.53125 -17.234375 C 18.414062 -18.421875 16.960938 -19.015625 15.171875 -19.015625 C 13.378906 -19.015625 11.925781 -18.421875 10.8125 -17.234375 C 9.707031 -16.046875 9.15625 -14.519531 9.15625 -12.65625 C 9.15625 -10.71875 9.707031 -9.15625 10.8125 -7.96875 C 11.925781 -6.78125 13.378906 -6.1875 15.171875 -6.1875 Z M 15.171875 -6.1875 "/></g></g></g><g fill="#eeb30d" fill-opacity="1"><g transform="translate(137.890454, 361.954514)"><g><path d="M 3.015625 -38.890625 L 10.359375 -38.890625 L 10.359375 -13.6875 L 18.515625 -25.203125 L 26.78125 -25.203125 L 17.96875 -13.25 L 27.453125 0 L 18.6875 0 L 10.359375 -12.046875 L 10.359375 0 L 3.015625 0 Z M 3.015625 -38.890625 "/></g></g></g></svg>